<svg xmlns="http://www.w3.org/2000/svg" xmlns:xlink="http://www.w3.org/1999/xlink" version="1.1" width="256" height="256" viewBox="0 0 256 256" xml:space="preserve">

<defs>
</defs>
<g style="stroke: none; strokeWidth: 0; stroke-dasharray: none; strokeLinecap: butt; strokeLinejoin: miter; stroke-miterlimit: 10; fill: none; fill-rule: nonzero; opacity: 1;" transform="translate(1.4065934065934016 1.4065934065934016) scale(2.81 2.81)">
	<path d="M 89.705 60.21 c 0 -2.087 -1.457 -3.831 -3.404 -4.295 V 34.354 c 0 -0.565 -0.457 -1.023 -1.023 -1.023 c -0.565 0 -1.023 0.458 -1.023 1.023 v 21.561 c -1.947 0.464 -3.404 2.208 -3.404 4.295 s 1.457 3.831 3.404 4.295 v 6.839 c 0 0.565 0.457 1.023 1.023 1.023 c 0.565 0 1.023 -0.457 1.023 -1.023 v -6.839 C 88.249 64.041 89.705 62.298 89.705 60.21 z" style="stroke: none; strokeWidth: 1; stroke-dasharray: none; strokeLinecap: butt; strokeLinejoin: miter; stroke-miterlimit: 10; fill: rgb(241,210,75); fill-rule: nonzero; opacity: 1;" transform=" matrix(1 0 0 1 0 0) " strokeLinecap="round"/>
	<path d="M 70.545 40.218 v 24.831 c 0 1.948 -1.315 3.636 -3.19 4.165 c -14.904 4.204 -29.807 4.204 -44.711 0 c -1.875 -0.529 -3.19 -2.217 -3.19 -4.165 V 40.218 H 70.545 z" style="stroke: none; strokeWidth: 1; stroke-dasharray: none; strokeLinecap: butt; strokeLinejoin: miter; stroke-miterlimit: 10; fill: rgb(70,79,94); fill-rule: nonzero; opacity: 1;" transform=" matrix(1 0 0 1 0 0) " strokeLinecap="round"/>
	<path d="M 1.015 34.159 l 39.651 13.028 c 2.815 0.925 5.852 0.925 8.667 0 l 39.651 -13.028 c 1.354 -0.445 1.354 -2.36 0 -2.805 L 49.333 18.326 c -2.815 -0.925 -5.852 -0.925 -8.667 0 L 1.015 31.354 C -0.338 31.799 -0.338 33.714 1.015 34.159 z" style="stroke: none; strokeWidth: 1; stroke-dasharray: none; strokeLinecap: butt; strokeLinejoin: miter; stroke-miterlimit: 10; fill: rgb(57,63,75); fill-rule: nonzero; opacity: 1;" transform=" matrix(1 0 0 1 0 0) " strokeLinecap="round"/>
</g>
</svg>